# Blender 4.1.1
# www.blender.org
mtllib Pachinko.mtl
o ドア上.006
v 10.000000 4.199999 0.399999
v 10.000000 7.199999 0.399999
v -10.000000 4.199999 0.400001
v -10.000000 7.199999 0.400001
v -10.000000 3.600000 0.500000
v -10.000000 4.400000 0.500000
v -10.000000 3.600000 -0.500000
v -10.000000 4.400000 -0.500000
v 10.000000 3.600000 0.500000
v 10.000000 4.400000 0.500000
v 10.000000 3.600000 -0.500000
v 10.000000 4.400000 -0.500000
v -10.000000 7.000000 0.991035
v -10.000000 7.000000 -2.008965
v -10.000000 9.000000 0.991035
v 10.000000 7.000000 0.991035
v 10.000000 7.000000 -2.008965
v 10.000000 9.000000 0.991035
v 10.000000 9.000000 -2.008965
v -10.000000 9.000000 -2.008965
v 4.800000 7.100000 0.500000
v 4.800000 7.100000 -0.500000
v 5.200000 7.100000 0.500000
v 4.800000 -4.900000 0.500000
v 4.800000 -4.900000 -0.500000
v 5.200000 -4.900000 0.500000
v 5.200000 -4.900000 -0.500000
v 5.200000 7.100000 -0.500000
v -5.200000 7.100000 0.500000
v -5.200000 7.100000 -0.500000
v -4.800000 7.100000 0.500000
v -5.200000 -4.900000 0.500000
v -5.200000 -4.900000 -0.500000
v -4.800000 -4.900000 0.500000
v -4.800000 -4.900000 -0.500000
v -4.800000 7.100000 -0.500000
v 10.000000 -5.000000 1.000000
v 10.000000 -5.000000 -1.000000
v 10.000000 9.000000 1.000000
v 12.000000 -5.000000 1.000000
v 12.000000 -5.000000 -1.000000
v 12.000000 9.000000 1.000000
v 12.000000 9.000000 -1.000000
v 10.000000 9.000000 -1.000000
v -12.027568 -5.000000 1.000000
v -12.027568 -5.000000 -1.000000
v -12.027568 9.000000 1.000000
v -10.027568 -5.000000 1.000000
v -10.027568 -5.000000 -1.000000
v -10.027568 9.000000 1.000000
v -10.027568 9.000000 -1.000000
v -12.027568 9.000000 -1.000000
v 5.100002 3.700000 0.400001
v 5.100002 -4.900000 0.399999
v 10.100002 3.700000 0.400001
v 10.100002 -4.900000 0.399999
v -10.099999 3.700000 0.400001
v -10.099999 -4.900000 0.399999
v -5.100000 3.700000 0.400001
v -5.100000 -4.900000 0.399999
vn -0.0000 -0.0000 -1.0000
vn -1.0000 -0.0000 -0.0000
vn 1.0000 -0.0000 -0.0000
vn -0.0000 -0.0000 1.0000
vn -0.0000 -1.0000 -0.0000
vn -0.0000 1.0000 -0.0000
vt 0.014150 0.456712
vt 0.014150 0.123957
vt 0.064064 0.123957
vt 0.064064 0.456712
vt 0.823417 0.391297
vt 0.832828 0.400709
vt 0.821064 0.412473
vt 0.811652 0.403061
vt 0.585770 0.647767
vt 0.576358 0.638355
vt 0.574005 0.659532
vt 0.564594 0.650120
vt 0.338712 0.894825
vt 0.329300 0.885414
vt 0.341065 0.403062
vt 0.329300 0.414826
vt 0.821064 0.883061
vt 0.809299 0.894825
vt 0.048196 0.542313
vt 0.283490 0.307019
vt 0.318784 0.342313
vt 0.083490 0.577607
vt 0.012902 0.036432
vt 0.036432 0.012902
vt 0.071726 0.048196
vt 0.048196 0.071726
vt 0.342313 0.318784
vt 0.577607 0.554077
vt 0.554077 0.577607
vt 0.307019 0.283490
vt 0.542313 0.048196
vt 0.577607 0.083490
vt 0.858262 0.312687
vt 0.717086 0.171511
vt 0.728850 0.159746
vt 0.870026 0.300922
vt 0.564145 0.324452
vt 0.559439 0.319746
vt 0.571204 0.307981
vt 0.575909 0.312687
vt 0.724144 0.155040
vt 0.865321 0.013864
vt 0.870026 0.018570
vt 0.712380 0.166805
vt 0.571204 0.025629
vt 0.582968 0.013864
vt 0.312687 0.976056
vt 0.171511 0.834880
vt 0.183275 0.823116
vt 0.324452 0.964292
vt 0.018570 0.987821
vt 0.013864 0.983115
vt 0.025629 0.971351
vt 0.030335 0.976056
vt 0.178570 0.818410
vt 0.319746 0.677234
vt 0.324452 0.681939
vt 0.166805 0.830174
vt 0.025629 0.688998
vt 0.037393 0.677234
vt 0.655276 0.646416
vt 0.688552 0.646416
vt 0.688552 0.679691
vt 0.655276 0.679692
vt 0.688552 0.579865
vt 0.921480 0.579865
vt 0.921480 0.613140
vt 0.688552 0.613141
vt 0.921480 0.679691
vt 0.921480 0.712967
vt 0.688552 0.712967
vt 0.921480 0.646416
vt 0.954756 0.646416
vt 0.954756 0.679691
vt 0.423820 0.877872
vt 0.457096 0.877872
vt 0.457096 0.911147
vt 0.423820 0.911147
vt 0.457096 0.811321
vt 0.690024 0.811321
vt 0.690024 0.844596
vt 0.457096 0.844596
vt 0.690024 0.911147
vt 0.690024 0.944423
vt 0.457096 0.944423
vt 0.690024 0.877872
vt 0.723300 0.877872
vt 0.723300 0.911147
vt 0.216499 0.564174
vt 0.216499 0.480985
vt 0.359583 0.480985
vt 0.359583 0.564174
vt 0.156568 0.097129
vt 0.156568 0.013940
vt 0.299653 0.013940
vt 0.299653 0.097129
s 0
usemtl マテリアル
f 1/1/1 3/2/1 4/3/1 2/4/1
f 5/5/2 6/6/2 8/7/2 7/8/2
f 7/8/1 8/7/1 12/9/1 11/10/1
f 11/10/3 12/9/3 10/11/3 9/12/3
f 9/12/4 10/11/4 6/13/4 5/14/4
f 7/15/5 11/10/5 9/12/5 5/16/5
f 12/9/6 8/17/6 6/18/6 10/11/6
f 14/19/5 17/20/5 16/21/5 13/22/5
f 13/23/2 15/24/2 20/25/2 14/26/2
f 16/21/4 18/27/4 15/28/4 13/29/4
f 17/20/3 19/30/3 18/27/3 16/21/3
f 19/30/6 20/31/6 15/32/6 18/27/6
f 14/26/1 20/25/1 19/30/1 17/20/1
f 22/33/2 25/34/2 24/35/2 21/36/2
f 21/37/6 23/38/6 28/39/6 22/40/6
f 24/35/4 26/41/4 23/42/4 21/43/4
f 25/34/5 27/44/5 26/41/5 24/35/5
f 27/44/3 28/45/3 23/46/3 26/41/3
f 22/40/1 28/39/1 27/44/1 25/34/1
f 30/47/2 33/48/2 32/49/2 29/50/2
f 29/51/6 31/52/6 36/53/6 30/54/6
f 32/49/4 34/55/4 31/56/4 29/57/4
f 33/48/5 35/58/5 34/55/5 32/49/5
f 35/58/3 36/59/3 31/60/3 34/55/3
f 30/54/1 36/53/1 35/58/1 33/48/1
f 38/61/5 41/62/5 40/63/5 37/64/5
f 37/65/2 39/66/2 44/67/2 38/68/2
f 40/63/4 42/69/4 39/70/4 37/71/4
f 41/62/3 43/72/3 42/69/3 40/63/3
f 43/72/6 44/73/6 39/74/6 42/69/6
f 38/68/1 44/67/1 43/72/1 41/62/1
f 46/75/5 49/76/5 48/77/5 45/78/5
f 45/79/2 47/80/2 52/81/2 46/82/2
f 48/77/4 50/83/4 47/84/4 45/85/4
f 49/76/3 51/86/3 50/83/3 48/77/3
f 51/86/6 52/87/6 47/88/6 50/83/6
f 46/82/1 52/81/1 51/86/1 49/76/1
f 53/89/1 55/90/1 56/91/1 54/92/1
f 57/93/1 59/94/1 60/95/1 58/96/1
